<?xml version="1.0" encoding="UTF-8" standalone="no"?>
<!-- Created with Inkscape (http://www.inkscape.org/) -->

<svg
   version="1.1"
   id="svg1"
   width="5334.6665"
   height="5334.6665"
   viewBox="0 0 5334.6665 5334.6665"
   sodipodi:docname="vecteezy_dragon-silhouette-illustration_56632391.eps"
   xmlns:inkscape="http://www.inkscape.org/namespaces/inkscape"
   xmlns:sodipodi="http://sodipodi.sourceforge.net/DTD/sodipodi-0.dtd"
   xmlns="http://www.w3.org/2000/svg"
   xmlns:svg="http://www.w3.org/2000/svg">
  <defs
     id="defs1" />
  <sodipodi:namedview
     id="namedview1"
     pagecolor="#ffffff"
     bordercolor="#000000"
     borderopacity="0.25"
     inkscape:showpageshadow="2"
     inkscape:pageopacity="0.0"
     inkscape:pagecheckerboard="0"
     inkscape:deskcolor="#d1d1d1">
    <inkscape:page
       x="0"
       y="0"
       inkscape:label="1"
       id="page1"
       width="5334.6665"
       height="5334.6665"
       margin="0"
       bleed="0" />
  </sodipodi:namedview>
  <g
     id="g1"
     inkscape:groupmode="layer"
     inkscape:label="1">
    <g
       id="group-R5">
      <path
         id="path2"
         d="M 40005,5 H 5 V 40005 H 40005 V 5"
         style="fill:#ffffff;fill-opacity:1;fill-rule:nonzero;stroke:none"
         transform="matrix(0.13333333,0,0,-0.13333333,0,5334.6667)" />
      <path
         id="path3"
         d="M 40005,5 H 5 v 40000 h 40000 z"
         style="fill:none;stroke:#100f0d;stroke-width:10;stroke-linecap:butt;stroke-linejoin:miter;stroke-miterlimit:10;stroke-dasharray:none;stroke-opacity:1"
         transform="matrix(0.13333333,0,0,-0.13333333,0,5334.6667)" />
      <path
         id="path4"
         d="m 8923.43,25430.1 c 0,0 -0.32,-0.7 -0.93,-2.1 -30.19,-815.6 0.93,2.1 0.93,2.1"
         style="fill:#100f0d;fill-opacity:1;fill-rule:nonzero;stroke:none"
         transform="matrix(0.13333333,0,0,-0.13333333,0,5334.6667)" />
      <path
         id="path5"
         d="m 20218,9851.4 -1.4,0.8 c -118,75.8 -166.7,88.8 -186.2,88.8 -8.3,0 -11.3,-2.4 -12.1,-3.2 -20.6,-22 47.7,-148.7 124.4,-253.4 12.9,-18.3 1274.3,-1815.4 1650.7,-2317.3 158,-210.7 189.3,-197.2 189.6,-197 0.2,0.1 18.4,14 -15.1,140 -18.4,69.3 -43.1,136.5 -43.3,137.2 l -0.7,1.9 -0.2,2 c -81.5,831.2 -540.5,1439.3 -911.3,1803 -402.4,394.8 -790.6,595.2 -794.4,597.2"
         style="fill:#ffffff;fill-opacity:1;fill-rule:nonzero;stroke:none"
         transform="matrix(0.13333333,0,0,-0.13333333,0,5334.6667)" />
      <path
         id="path6"
         d="m 21923.7,7451.2 0.2,-2 0.7,-1.9 c 0.2,-0.7 24.9,-67.9 43.3,-137.2 33.5,-126 15.3,-139.9 15.1,-140 -0.3,-0.2 -31.6,-13.7 -189.6,197 -376.4,501.9 -1637.8,2299 -1650.7,2317.3 -76.7,104.7 -145,231.4 -124.4,253.4 0.8,0.8 3.8,3.2 12.1,3.2 19.5,0 68.2,-13 186.2,-88.8 l 1.4,-0.8 c 3.8,-2 392,-202.4 794.4,-597.2 370.8,-363.7 829.8,-971.8 911.3,-1803 z m -1698.5,2414.3 c -444.5,285.7 -95.3,-190.5 -95.3,-190.5 0,0 1269.9,-1809.5 1650.9,-2317.5 380.9,-507.9 158.7,95.3 158.7,95.3 -158.7,1619 -1714.3,2412.7 -1714.3,2412.7"
         style="fill:#100f0d;fill-opacity:1;fill-rule:nonzero;stroke:none"
         transform="matrix(0.13333333,0,0,-0.13333333,0,5334.6667)" />
      <path
         id="path7"
         d="m 21618.5,8520.5 c 186.7,-335.4 300,-693.4 336.6,-1064.2 4.2,-11.6 26.4,-73.8 43.5,-137.9 36.2,-136.3 18.8,-165.8 -0.4,-176.2 -4.6,-2.5 -9.8,-4.2 -16.1,-4.2 -30.3,0 -85.5,38.6 -214,210 -376.8,502.3 -1638.5,2299.8 -1651.1,2317.9 -40.8,55.6 -170.6,241.7 -121.8,293.6 19.8,21.1 64.8,31 237.9,-80.2 19.4,-10.1 403.4,-212 800.8,-601.7 238.4,-233.8 435.1,-488.5 584.6,-757.1 z M 8830.51,20215.6 c -39.18,105.6 -67.39,300 283.4,253.2 l 29.03,-13.9 z M 31870.2,3522.9 c -913.7,-30.8 -1817.8,270.9 -2601,742.7 -783.1,471.7 -1455.2,1107.8 -2070.2,1784.3 -729.3,802.4 -1416.1,1740 -1487.5,2821.9 -120.6,-15.9 -241.2,-31.8 -361.8,-47.7 106.7,145.8 95,366.3 -26.4,500.1 -121.5,133.8 -339.8,166.7 -495.3,74.6 93,162.4 90.9,380.4 -22.2,529.6 -113,149.2 -337.8,208.2 -501.2,117.1 176.7,402.4 -239.5,921.9 -670.8,837.3 55.1,202.3 -29.3,434.9 -201.3,554.7 -172.1,119.8 -419.5,118.3 -590.1,-3.5 31.3,220.8 62.7,441.6 94,662.5 -210,-31.8 -420,-63.5 -630,-95.3 134.2,233.4 32.7,560.3 -193.9,705.8 -226.5,145.6 -540.1,117 -760.2,-38.1 21.9,185.3 9,374.7 -38.1,555.3 -238.9,-6.1 -512.9,-48.3 -745.5,-5.1 34.8,182 151.3,363.2 221.5,538.4 -256.1,58.1 -579.9,11.9 -848.1,10.5 -0.5,199.8 -1.1,399.6 -1.6,599.4 -0.1,40.5 -0.7,83 -20.5,118.4 -42.1,75.2 -145.8,82.7 -231.9,78.7 -293,-13.5 -583.3,-141.7 -816.3,59 -147.8,127.3 -266.1,347.4 -343.6,524.6 -259.6,594.2 -69.8,1312.7 337.9,1789.8 140.4,164.3 311.6,296.2 466.4,445.9 135,130.5 278.6,486 491.3,448.4 165.7,-29.2 283.9,-320.9 369.6,-442.8 603.2,-857.1 1365.1,-1714.3 1365.1,-1714.3 -47.9,311.7 -95.6,623.5 -143.1,935.2 -76.4,501 -257.4,1093.4 -213.7,1597.1 28,321.8 261.7,730.4 584.9,844.3 370.9,130.7 716.6,-167.1 946.6,-424.2 194.4,-217.3 396.7,-461.9 635.9,-632.8 259.3,-185.2 326.4,-61.8 239.6,182.5 -137.4,386.6 -334.1,765.6 -396.8,1174.5 -157.4,1026.9 1158.5,2043.2 1835.8,2637.6 973.3,854.1 2104.6,1523.9 3312.1,1989.2 700.3,269.8 1114.5,124.5 1799.8,-71.3 307.6,-87.9 615.2,-175.8 922.9,-263.7 -77.9,22.2 -194,191.1 -249.8,246 -207.1,203.9 -414.1,407.9 -621.2,611.7 -333.8,328.6 -692.4,633.4 -1002.1,985.9 -366.2,416.9 -400.3,736.6 -423,1279.7 -31.5,754.8 316.5,1394.3 712.8,2006.9 318.9,492.8 977.6,1622 1651.3,1623.5 141.1,0.3 299.1,-63.4 355.1,-201.2 173.6,-426.6 357.9,134.1 429,289.4 63.9,139.6 170.6,277.5 322,302.8 -895.2,1.2 -1790.5,2.6 -2685.9,4.7 -560,1.9 -1022.7,957.6 -1172.1,1376.8 -223.3,626.5 -304.1,1290.8 -359.6,1950 -50.9,604.4 -40.5,1165.4 325.1,1684.4 174.5,247.8 389.3,463.9 603.4,679.2 144.3,144.8 396.6,-57.8 534,-110.2 16.4,229 88.5,476.9 188.6,685.6 111.9,233.2 288.1,390.9 448.7,580.8 -137.2,58.8 -324.1,70.3 -469.5,27.3 -119.6,-35.4 -221.8,-113.1 -317,-193.7 -536.3,-453.7 -955.5,-1038.3 -1430,-1553.6 -508.1,-551.7 -1028.3,-1092.4 -1564.3,-1617 -1047.3,-1024.9 -2156,-1988.9 -3344.1,-2847.8 -516.1,-373.2 -1046.9,-726.9 -1599.4,-1044 -283.5,-162.7 -572.6,-315.9 -867.7,-456.6 -446.9,-212.9 -545.4,-315.2 -560.2,-822.1 -11.3,-387 14,-776.4 -4.4,-1162.8 -84.7,-931 35.5,-1938.6 -145.1,-2853.1 -143,152.4 -316.9,272.1 -466.6,418.2 -133.6,106.8 -251.2,245 -373.8,364.6 -113,110.2 -330.3,252.2 -401.5,391.6 -145.7,285.3 121.3,638 205.5,901.7 -148.8,-107.2 -273,-348.5 -386.5,-501.4 -76.2,-102.7 -150.8,-137.1 -276.6,-126.2 -243.5,21 -486,48.4 -729.2,71.1 -259.4,24.3 -508,59.5 -724.7,214.4 -268.3,191.8 -463.7,461.4 -742.8,644.9 -33.4,21.9 -69.3,43.8 -109.2,45.1 -80.4,2.8 -137.8,-75.1 -175.3,-146.4 -108.1,-205.7 -179.1,-440.5 -143,-670 60.8,-385.9 394.9,-609.3 557.1,-943 146.4,-300.9 95.6,-614.2 93.9,-934.4 -1.7,-342 19.9,-688.9 25.4,-1031.9 3.2,-199.1 109.2,-2216 35.3,-2234.4 0,0 -888.9,-221.6 -1587.3,127.3 -698.4,348.9 -698.4,698.1 -317.5,1047.3 381,349.2 -444.4,349.2 -444.4,349.2 0,0 -761.9,444.4 -444.5,698.4 317.5,254 317.5,254 317.5,254 l -571.4,254 -95.3,666.6 -603.2,-126.9 95.3,666.6 -698.5,-63.5 v 508 l -507.9,-222.2 c -70.6,161.4 -127.3,355.1 -224.9,499 -53,-23.2 -657.8,-444 -664.3,-430.6 -89.8,185.1 -132.1,452.8 -255.9,611.7 -97.6,-94.1 -166.6,-254.5 -239.24,-371.8 -45.46,-73.4 -101.23,-224.1 -171.23,-276.6 0,0 -349.21,-285.7 -317.47,95.2 30.93,371.1 31.73,501.2 31.75,507.7 0.1,31.4 -326.85,-177.2 -350.01,-201.4 -185.1,-193.1 -243.55,-459.2 -253.17,-719 -0.32,-8.5 -0.63,-16.8 -0.93,-25 0.61,1.4 0.93,2.1 0.93,2.1 0,0 -31.12,-817.7 -0.93,-2.1 -11.88,-25.5 -140.03,-281.6 -411.8,-70.2 -200.05,155.6 -161.76,344.9 -140.82,558.3 -109.83,-18.6 -190.16,-170.3 -223.06,-268.4 -88.31,-263.3 -17.06,-502.1 -17.06,-766.1 0,0 -31.74,-285.7 -349.16,-254 -149.31,14.9 -251.3,313.3 -235.01,427 -135.46,-80.7 -204.37,-251.2 -230.86,-399.6 -11.27,-63.1 40.24,-512.2 53.1,-503.6 -438.64,-292.9 -661.61,-804.8 -673.65,-1314 -0.5,-21.4 -1.15,-43.4 -9.83,-62.9 -8.96,-20.2 -25.6,-35.7 -41.81,-50.7 -271.1,-250.2 -537.5,-505.9 -830.27,-731.1 -412.7,-317.5 -253.97,-920.7 507.94,-1206.4 0,0 444.46,-349.2 571.44,-349.2 126.99,0 -412.7,539.7 -380.96,666.7 31.75,126.9 476.2,190.4 825.41,-254 0,0 -126.98,571.4 -31.74,698.4 95.24,127 95.24,254 95.24,254 l 412.7,222.2 825.41,-31.7 c 0,0 -190.48,-1206.4 -952.4,-1460.4 0,0 31.75,-190.5 380.96,-31.7 349.21,158.7 666.68,730.1 666.68,730.1 l -87.08,-566 -45.28,-259.4 h -2.02 l -31.1,-189.7 -16.27,-99.3 20.6,7.3 c 16.87,-156.1 95.78,-427.8 456.64,-120.9 482.18,410 407.23,676.4 407.23,676.4 1.91,23.2 4.37,53.6 7.21,89.5 -9.94,-20.9 -15.95,-33.3 -15.95,-33.3 l 25.55,559 c 10.96,16.4 20.91,30.6 30.07,43.3 15.93,272.5 26.11,544.7 12.31,655.1 -31.74,253.9 158.74,698.4 0,984.1 -158.73,285.7 -158.73,285.7 -158.73,285.7 0,0 742.77,1111.2 1530.07,0 0,0 1041.4,-698.4 1200.1,-2095.2 -28.4,-540.5 -111,-1082.9 -219.3,-1612.4 -240.1,-1173.9 -835.2,-2200.3 -736.6,-3433.8 87.6,-1096.7 577,-2158.3 1404,-2892.5 548.1,-486.5 1152.2,-915.1 1801.3,-1256.3 720.8,-379.1 1854.8,-497.2 2223.2,-1330.8 123.8,-280.3 21.8,-587.3 190.5,-850.6 463.3,-722.6 1668.3,-1126.3 2468.9,-1230.1 2147.5,-278.3 2593.5,-3283.3 3477.9,-4865.7 256.9,-459.6 578,-909.1 1047.5,-1170.5 302,-168.1 659.2,-248.3 999.3,-186.6 368,66.8 -162.8,372.4 -213.4,476.7 -13.9,28.7 718.9,323.9 783.6,350.6 -259,35.5 -520.2,60.9 -779.4,97 -171.3,23.9 -331.2,144.2 -150.7,289.9 124.4,100.4 340.4,134.9 418.3,263.2 -233.3,39.3 -494.9,12.5 -733.1,13.9 -65.8,0.4 -133.1,1.1 -194.9,23.7 -61.8,22.7 -118,72.1 -129.9,136.8 l -523.1,907.6 c -279,811.3 265.7,1682.4 2.1,2508.7 -73.1,229.1 -193.2,440 -287.5,661.3 -152.4,358 -239.5,748.5 -247.1,1137.9 -4.5,229.3 17.4,246.5 -146.7,376.5 -365.7,289.7 -786.9,429.9 -1135.1,764.3 -96.9,93.1 -182.1,270.9 -66.6,339.6 48.6,29 110.2,17.7 165.1,4.2 950,-232.6 1766.6,-846.7 2439.5,-1556.4 673,-709.7 1226.5,-1522.3 1846,-2279.1 1564,-1910.7 3690.2,-3520.4 6143.7,-3797.6 729.5,-82.4 1945.3,-97.8 2506,473.4 -745.3,404.5 -1759.9,19.3 -2549.6,-7.3"
         style="fill:#100f0d;fill-opacity:1;fill-rule:nonzero;stroke:none"
         transform="matrix(0.13333333,0,0,-0.13333333,0,5334.6667)" />
      <path
         id="path8"
         d="m 9459.81,20992.2 c 0.69,9.5 1.38,19.2 2.08,29 -13.95,-38.3 -23.54,-63.4 -23.54,-63.4 7.41,11.9 14.55,23.4 21.46,34.4"
         style="fill:#100f0d;fill-opacity:1;fill-rule:nonzero;stroke:none"
         transform="matrix(0.13333333,0,0,-0.13333333,0,5334.6667)" />
      <path
         id="path9"
         d="m 8830.51,20215.6 312.43,239.3 -29.03,13.9 c -350.79,46.8 -322.58,-147.6 -283.4,-253.2"
         style="fill:#100f0d;fill-opacity:1;fill-rule:nonzero;stroke:none"
         transform="matrix(0.13333333,0,0,-0.13333333,0,5334.6667)" />
      <path
         id="path10"
         d="m 21939.5,7452.8 c 0,0 222.2,-603.2 -158.7,-95.3 -381,508 -1650.9,2317.5 -1650.9,2317.5 0,0 -349.2,476.2 95.3,190.5 0,0 1555.6,-793.7 1714.3,-2412.7 z m -905.6,1824.8 c -397.4,389.7 -781.4,591.6 -800.8,601.7 -173.1,111.2 -218.1,101.3 -237.9,80.2 -48.8,-51.9 81,-238 121.8,-293.6 12.6,-18.1 1274.3,-1815.6 1651.1,-2317.9 128.5,-171.4 183.7,-210 214,-210 6.3,0 11.5,1.7 16.1,4.2 19.2,10.4 36.6,39.9 0.4,176.2 -17.1,64.1 -39.3,126.3 -43.5,137.9 -36.6,370.8 -149.9,728.8 -336.6,1064.2 -149.5,268.6 -346.2,523.3 -584.6,757.1"
         style="fill:#100f0d;fill-opacity:1;fill-rule:nonzero;stroke:none"
         transform="matrix(0.13333333,0,0,-0.13333333,0,5334.6667)" />
      <path
         id="path11"
         d="m 9482.55,21337.6 c -6.36,-108.9 -13.63,-217.7 -20.66,-316.4 58.47,160.8 193.59,555.3 20.66,316.4"
         style="fill:#100f0d;fill-opacity:1;fill-rule:nonzero;stroke:none"
         transform="matrix(0.13333333,0,0,-0.13333333,0,5334.6667)" />
      <path
         id="path12"
         d="m 9459.81,20992.2 c -6.2,-85.9 -12.11,-162.8 -16.93,-223.6 74.75,156.7 372.29,790.8 16.93,223.6"
         style="fill:#100f0d;fill-opacity:1;fill-rule:nonzero;stroke:none"
         transform="matrix(0.13333333,0,0,-0.13333333,0,5334.6667)" />
      <path
         id="path13"
         d="m 9426.93,20735.3 c 0,0 6.01,12.4 15.95,33.3 4.82,60.8 10.73,137.7 16.93,223.6 -6.91,-11 -14.05,-22.5 -21.46,-34.4 0,0 9.59,25.1 23.54,63.4 7.03,98.7 14.3,207.5 20.66,316.4 -9.16,-12.7 -19.11,-26.9 -30.07,-43.3 l -25.55,-559"
         style="fill:#100f0d;fill-opacity:1;fill-rule:nonzero;stroke:none"
         transform="matrix(0.13333333,0,0,-0.13333333,0,5334.6667)" />
      <path
         id="path14"
         d="M 23400.1,4285.2 24245,4555 c 0,0 -34.5,-519.5 -453.2,-730"
         style="fill:#100f0d;fill-opacity:1;fill-rule:nonzero;stroke:none"
         transform="matrix(0.13333333,0,0,-0.13333333,0,5334.6667)" />
    </g>
  </g>
</svg>
