<svg width="24" height="24" viewBox="0 0 24 24" fill="none" xmlns="http://www.w3.org/2000/svg">
  <rect width="24" height="24" rx="6" fill="url(#ig-gradient)"/>
  <defs>
    <linearGradient id="ig-gradient" x1="0" y1="0" x2="24" y2="24" gradientUnits="userSpaceOnUse">
      <stop stop-color="#FFD600"/>
      <stop offset="1" stop-color="#FF6B00"/>
    </linearGradient>
  </defs>
  <path d="M16.5 7.5C16.7761 7.5 17 7.72386 17 8V8.01C17 8.28614 16.7761 8.51 16.5 8.51C16.2239 8.51 16 8.28614 16 8.01V8C16 7.72386 16.2239 7.5 16.5 7.5ZM12 9.5C10.067 9.5 8.5 11.067 8.5 13C8.5 14.933 10.067 16.5 12 16.5C13.933 16.5 15.5 14.933 15.5 13C15.5 11.067 13.933 9.5 12 9.5ZM12 15.5C10.6193 15.5 9.5 14.3807 9.5 13C9.5 11.6193 10.6193 10.5 12 10.5C13.3807 10.5 14.5 11.6193 14.5 13C14.5 14.3807 13.3807 15.5 12 15.5ZM17.5 8.01C17.5 7.17614 16.8339 6.51 16 6.51C15.1661 6.51 14.5 7.17614 14.5 8.01V8.02C14.5 8.85386 15.1661 9.52 16 9.52C16.8339 9.52 17.5 8.85386 17.5 8.02V8.01ZM12 7C9.23858 7 7 9.23858 7 12C7 14.7614 9.23858 17 12 17C14.7614 17 17 14.7614 17 12C17 9.23858 14.7614 7 12 7Z" fill="#000"/>
</svg>
