<svg width="24" height="24" viewBox="0 0 24 24" fill="none" xmlns="http://www.w3.org/2000/svg">
  <rect width="24" height="24" rx="6" fill="#23272F"/>
  <path d="M7.5 8.5C8.32843 8.5 9 7.82843 9 7C9 6.17157 8.32843 5.5 7.5 5.5C6.67157 5.5 6 6.17157 6 7C6 7.82843 6.67157 8.5 7.5 8.5Z" fill="#FFD600"/>
  <rect x="6" y="10" width="3" height="8" rx="1.5" fill="#FFD600"/>
  <path d="M12.5 10C11.6716 10 11 10.6716 11 11.5V18.5C11 19.3284 11.6716 20 12.5 20H15.5C16.3284 20 17 19.3284 17 18.5V14.5C17 13.6716 16.3284 13 15.5 13H14.5V11.5C14.5 10.6716 13.8284 10 13 10H12.5Z" fill="#FFD600"/>
</svg>
